<svg id="Layer_1" data-name="Layer 1" xmlns="http://www.w3.org/2000/svg" viewBox="0 0 234.57 234.05"><defs><style>.cls-1{fill:#f9ff00;}</style></defs><path class="cls-1" d="M234.57,106.38c0-4.61-26.08-8.57-63.48-10.32,26.34-28.71,42.87-51,39.53-54.31-3.76-3.75-31.44,17.64-65.33,49.83,24.14-26.71,39-47,35.79-50.2-2.87-2.87-19.71,8.94-42.6,29C136.91,29.34,132.75,0,127.86,0c-5.31,0-9.76,34.7-11,81.43-1.82-36-5.7-60.8-10.19-60.8-3.82,0-7.2,18-9.24,45.51C77.19,48.76,62.6,38.87,59.94,41.52c-3,3,9.9,21.07,31.46,45.36C59.51,57,34,37.55,30.4,41.15,27,44.54,44.12,67.45,71.18,96.82c-30.05,2-50,5.53-50,9.56,0,4.22,21.9,7.9,54.33,9.83C31.78,117.62,0,121.92,0,127c0,4.87,29.17,9,70,10.6-26.53,28.9-43.23,51.34-39.87,54.69,3.75,3.76,31.43-17.62,65.31-49.81-24.13,26.7-38.95,47-35.77,50.19,2.61,2.61,16.8-6.95,36.6-23.84,1.71,38.32,5.72,65.22,10.4,65.22,5.31,0,9.76-34.69,11-81.41,1.81,36,5.69,60.78,10.18,60.78,4.1,0,7.68-20.6,9.66-51.43,23.5,20.72,40.87,33,43.79,30.07s-9.9-21.07-31.46-45.37c31.9,29.9,57.41,49.34,61,45.74,3.42-3.42-14-26.63-41.36-56.3,26.62-2,43.93-5.38,43.93-9.13,0-4.21-21.9-7.89-54.32-9.83C202.79,115.76,234.57,111.46,234.57,106.38Z"/></svg>