<svg id="Layer_1" data-name="Layer 1" xmlns="http://www.w3.org/2000/svg" viewBox="0 0 308.23 308.23"><defs><style>.cls-1{fill:#afff00;}</style></defs><path class="cls-1" d="M170.32,137.43C169.44,60.16,162.52,0,154.12,0s-15.33,60.16-16.21,137.43C60.41,138.28,0,145.21,0,153.64S60.41,169,137.9,169.85c.83,77.72,7.78,138.38,16.22,138.38s15.38-60.66,16.21-138.38c77.49-.86,137.9-7.79,137.9-16.21S247.82,138.28,170.32,137.43ZM184.51,156a34.47,34.47,0,0,0-28.35,28.36c-.59,3.58-1.29,5.65-2,5.65s-1.46-2.07-2.05-5.65A34.46,34.46,0,0,0,123.72,156c-3.5-.59-5.53-1.28-5.53-2s2-1.44,5.57-2a34.49,34.49,0,0,0,28.34-28.33c.59-3.45,1.28-5.45,2-5.45s1.42,2,2,5.45A34.5,34.5,0,0,0,184.47,152c3.53.59,5.57,1.29,5.57,2S188,155.44,184.51,156Z"/></svg>